<?xml version="1.0" encoding="UTF-8"?>
<!DOCTYPE svg PUBLIC "-//W3C//DTD SVG 1.1//EN" "http://www.w3.org/Graphics/SVG/1.1/DTD/svg11.dtd">
<!-- Creator: CorelDRAW X7 -->
<svg xmlns="http://www.w3.org/2000/svg" xml:space="preserve" width="8.4652mm" height="8.3155mm" version="1.1" style="shape-rendering:geometricPrecision; text-rendering:geometricPrecision; image-rendering:optimizeQuality; fill-rule:evenodd; clip-rule:evenodd"
viewBox="0 0 149 146"
 xmlns:xlink="http://www.w3.org/1999/xlink">
 <defs>
  <style type="text/css">
   <![CDATA[
    .fil0 {fill:#8A8A8A}
    .fil1 {fill:white}
   ]]>
  </style>
 </defs>
 <g id="图层_x0020_1">
  <metadata id="CorelCorpID_0Corel-Layer"/>
  <g id="_487289848">
   <path class="fil0" d="M19 129c0,-17 5,-17 19,-22 26,-10 59,-9 83,3 4,2 10,6 10,10l0 9 -112 0zm-19 17l149 0c0,-23 3,-33 -10,-44 -41,-34 -137,-21 -137,20l-2 24z"/>
   <path class="fil0" d="M67 19c26,-11 37,26 16,35 -25,10 -38,-26 -16,-35zm-28 21c1,18 19,34 40,33 19,-2 34,-19 33,-40 -5,-48 -77,-41 -73,7z"/>
   <path class="fil1" d="M67 19c-22,9 -9,45 16,35 21,-9 10,-46 -16,-35z"/>
  </g>
 </g>
</svg>
